<svg xmlns="http://www.w3.org/2000/svg" viewBox="0 0 1280 960" role="img" aria-label="Demo ceramic surface">
  <defs>
    <linearGradient id="surface" x1="0" x2="1" y1="0" y2="1">
      <stop offset="0" stop-color="#f8fafc"/>
      <stop offset="0.46" stop-color="#e6edf3"/>
      <stop offset="1" stop-color="#cbd5e1"/>
    </linearGradient>
    <filter id="softShadow" x="-20%" y="-20%" width="140%" height="140%">
      <feDropShadow dx="0" dy="18" stdDeviation="24" flood-color="#334155" flood-opacity="0.22"/>
    </filter>
  </defs>
  <rect width="1280" height="960" fill="#eef2f7"/>
  <rect x="118" y="92" width="1044" height="776" rx="28" fill="url(#surface)" filter="url(#softShadow)"/>
  <rect x="154" y="128" width="972" height="704" rx="18" fill="#f9fbfd" stroke="#94a3b8" stroke-width="4"/>
  <path d="M196 248c150-42 286-28 406 10 172 54 326 58 482-6" fill="none" stroke="#d6dee8" stroke-width="22" opacity="0.75"/>
  <path d="M228 626c120 34 228 34 326 4 162-50 318-40 486 34" fill="none" stroke="#d6dee8" stroke-width="20" opacity="0.62"/>
  <g opacity="0.92">
    <path d="M742 372l112 68-28 118-132 22-74-84 30-108z" fill="#f1f5f9" stroke="#64748b" stroke-width="5"/>
    <path d="M736 410l56 26-10 58-66 12-34-38 14-48z" fill="#cbd5e1"/>
  </g>
  <g opacity="0.7">
    <circle cx="382" cy="318" r="18" fill="#94a3b8"/>
    <circle cx="450" cy="720" r="12" fill="#94a3b8"/>
    <circle cx="994" cy="536" r="16" fill="#94a3b8"/>
    <circle cx="1028" cy="262" r="10" fill="#94a3b8"/>
  </g>
  <text x="190" y="798" fill="#64748b" font-family="Segoe UI, Arial, sans-serif" font-size="34" font-weight="700">CERAMIC SURFACE SAMPLE</text>
</svg>
